<svg xmlns="http://www.w3.org/2000/svg" viewBox="0 0 800 600" role="img" aria-label="Taiwan hot pot illustration">
  <defs>
    <linearGradient id="g" x1="0" y1="0" x2="1" y2="1">
      <stop offset="0%" stop-color="#fff4f6"/>
      <stop offset="100%" stop-color="#ffd0df"/>
    </linearGradient>
    <linearGradient id="steam" x1="0" y1="0" x2="0" y2="1">
      <stop offset="0%" stop-color="#ff7fa7" stop-opacity=".9"/>
      <stop offset="100%" stop-color="#ff7fa7" stop-opacity="0"/>
    </linearGradient>
  </defs>
  <rect width="800" height="600" rx="48" fill="url(#g)"/>
  <circle cx="400" cy="300" r="180" fill="#fff" opacity=".55"/>
  <ellipse cx="400" cy="360" rx="210" ry="105" fill="#cb2d5c"/>
  <ellipse cx="400" cy="340" rx="230" ry="110" fill="#f472b6"/>
  <ellipse cx="400" cy="330" rx="180" ry="80" fill="#ffffff" opacity=".85"/>
  <path d="M300 180c20-40 20-80 0-120" stroke="url(#steam)" stroke-width="20" stroke-linecap="round" fill="none"/>
  <path d="M400 170c22-44 22-92 0-136" stroke="url(#steam)" stroke-width="20" stroke-linecap="round" fill="none"/>
  <path d="M500 180c18-38 18-78 0-118" stroke="url(#steam)" stroke-width="20" stroke-linecap="round" fill="none"/>
  <circle cx="330" cy="315" r="26" fill="#fda4af"/>
  <circle cx="400" cy="290" r="24" fill="#f59e0b"/>
  <circle cx="470" cy="320" r="28" fill="#fb7185"/>
  <circle cx="445" cy="370" r="20" fill="#f97316"/>
  <circle cx="355" cy="380" r="18" fill="#facc15"/>
</svg>